<?xml version="1.0" encoding="UTF-8"?>
<svg width="41px" height="38px" viewBox="0 0 41 38" version="1.1" xmlns="http://www.w3.org/2000/svg" xmlns:xlink="http://www.w3.org/1999/xlink">
    <title>hormal</title>
    <g id="GMass-final-design" stroke="none" stroke-width="1" fill="none" fill-rule="evenodd">
        <g id="GMass-saved-drafts" transform="translate(-1009.000000, -86.000000)">
            <g id="hormal" transform="translate(1009.000000, 86.000000)">
                <path d="M4,0 L37,0 C39.209139,-8.49901461e-16 41,1.790861 41,4 L41,34 C41,36.209139 39.209139,38 37,38 L4,38 C1.790861,38 -1.73547709e-16,36.209139 0,34 L0,4 C-7.1463071e-16,1.790861 1.790861,-3.82769592e-17 4,0 Z" id="Rectangle" fill="#F6F6F6" fill-rule="nonzero"></path>
                <g id="dashboard" transform="translate(9.000000, 8.000000)">
                    <rect id="Rectangle" stroke="#000000" x="0.5" y="0.5" width="22" height="21"></rect>
                    <rect id="Rectangle" stroke="#000000" x="0.5" y="0.5" width="22" height="3"></rect>
                    <rect id="Rectangle" stroke="#000000" x="2.5" y="12.5" width="8" height="7"></rect>
                    <rect id="Rectangle" fill="#000000" x="4" y="16" width="1" height="2"></rect>
                    <rect id="Rectangle" fill="#000000" x="6" y="15" width="1" height="3"></rect>
                    <rect id="Rectangle" fill="#000000" x="8" y="14" width="1" height="4"></rect>
                    <rect id="Rectangle" stroke="#000000" fill="#52A8A0" x="12.5" y="12.5" width="8" height="7"></rect>
                    <rect id="Rectangle" stroke="#000000" fill="#806BE8" x="2.5" y="5.5" width="18" height="5"></rect>
                </g>
            </g>
        </g>
    </g>
</svg>